<?xml version="1.0" encoding="utf-8"?>
<!-- Generator: Adobe Illustrator 28.0.0, SVG Export Plug-In . SVG Version: 6.00 Build 0)  -->
<svg version="1.1" id="Layer_1" xmlns="http://www.w3.org/2000/svg" xmlns:xlink="http://www.w3.org/1999/xlink" x="0px" y="0px"
	 viewBox="0 0 16 16" style="enable-background:new 0 0 16 16;" xml:space="preserve">
<g id="Group_24913_00000162336366255872607240000005822947448927558055_" transform="translate(334 48.285)">
	<path id="Path_120798_00000078752774115012089120000006152906375674720390_" d="M-326-48.2c-4.4,0-7.9,3.6-7.9,8
		c0,4.4,3.6,7.9,8,7.9c4.4,0,7.9-3.6,7.9-8C-318-44.7-321.6-48.2-326-48.2C-326-48.2-326-48.2-326-48.2z M-324.3-35.4
		c-0.1,0.1-0.1,0.1-0.2,0.1h0c-0.2,0-0.4,0-0.6,0h-1.5c-0.2,0-0.3-0.1-0.3-0.3v-0.8c0-2.1,0-2.6,0-4.9l-0.1,0
		c-0.1,0.1-0.2,0.1-0.4,0.1l0,0c-0.1,0-0.1,0.1-0.2,0.1c-0.1,0-0.1,0-0.2,0c-0.1,0-0.2,0.1-0.4,0.1h0c0,0,0,0-0.1,0l0,0h0
		c0,0-0.1,0-0.1,0c-0.1,0-0.2,0-0.2,0l-0.1,0c-0.1,0-0.2,0-0.2-0.1c-0.1-0.1-0.1-0.1-0.1-0.2c0-0.7,0-1.3,0-2c0-0.2,0.1-0.3,0.3-0.3
		c0,0,0,0,0,0c0.1,0,0.2,0,0.3-0.1l0.1,0c0.1,0,0.2-0.1,0.3-0.1l0,0l0.3-0.1c0.3-0.1,0.5-0.3,0.7-0.5c0.1-0.1,0.1-0.2,0.1-0.3
		c0-0.2,0.2-0.3,0.4-0.3c0.7,0,1.3,0,2,0c0.1,0,0.2,0,0.2,0.1c0.1,0.1,0.1,0.2,0.1,0.3v3.2c0,1.4,0,2.6,0,4.8v0.3c0,0.3,0,0.5,0,0.8
		C-324.2-35.6-324.2-35.5-324.3-35.4L-324.3-35.4z"/>
</g>
</svg>
